# xmcd CD database file
#
# Track frame offsets:
#	150
#	16725
#	49275
#	71250
#
# Disc length: 1265 seconds
#
# Revision: 0
# Processed by: cddbd v1.5.2PL0 Copyright (c) Steve Scherf et al.
# Submitted via: CDex 1.70beta2
#
DISCID=2904ef04
DTITLE=Sign Of Zodiac - Le Cygne
DYEAR=1900
DGENRE=New Age
TTITLE0=video sign
TTITLE1=trance adventure sign
TTITLE2=zodiac sign
TTITLE3=Contemplation
EXTD=
EXTT0=
EXTT1=
EXTT2=
EXTT3=
PLAYORDER=
